<?xml version="1.0" standalone="no"?>
<!DOCTYPE svg PUBLIC "-//W3C//DTD SVG 20010904//EN"
 "http://www.w3.org/TR/2001/REC-SVG-20010904/DTD/svg10.dtd">
<svg version="1.0" xmlns="http://www.w3.org/2000/svg"
 width="364.000000pt" height="364.000000pt" viewBox="0 0 364.000000 364.000000"
 preserveAspectRatio="xMidYMid meet">
<metadata>
Created by potrace 1.14, written by Peter Selinger 2001-2017
</metadata>
<g transform="translate(0.000000,364.000000) scale(0.100000,-0.100000)"
fill="#000000" stroke="none">
<path d="M1310 3141 c-8 -10 -132 -139 -275 -287 -143 -148 -278 -287 -300
-310 -22 -23 -137 -141 -255 -264 -118 -122 -241 -250 -274 -284 -32 -33 -90
-94 -129 -133 l-71 -73 -1 -67 c-1 -38 2 -73 6 -78 4 -6 73 -10 173 -10 143 1
166 -1 167 -15 0 -8 1 -269 2 -580 l2 -565 405 0 405 0 0 75 0 75 -320 1
c-261 2 -321 4 -323 15 -1 8 -3 268 -5 579 l-2 565 -117 1 c-65 0 -120 2 -122
5 -3 2 23 34 57 69 172 182 454 480 542 575 20 22 74 78 118 125 45 48 140
148 211 224 l130 137 109 -113 c60 -62 144 -149 187 -193 l79 -80 -49 -53
c-27 -29 -73 -81 -102 -114 -29 -34 -62 -71 -73 -82 -11 -12 -78 -86 -149
-166 -71 -80 -160 -180 -199 -224 -94 -104 -102 -115 -115 -156 -55 -171 -18
-345 98 -460 91 -92 201 -131 350 -126 112 4 192 31 298 99 l68 44 49 -39
c217 -171 497 -157 684 32 113 114 152 261 107 398 -24 71 -21 67 -245 317
-78 87 -107 119 -196 220 -43 50 -81 92 -84 95 -7 5 -145 163 -174 196 -17 21
-14 24 173 213 l190 192 26 -28 c14 -15 94 -99 177 -187 84 -87 167 -175 186
-195 19 -20 104 -110 190 -200 366 -385 486 -512 489 -519 1 -4 -60 -7 -135
-7 l-138 0 0 -578 c0 -571 0 -577 -20 -578 -11 -1 -156 -1 -322 -1 -302 -1
-303 -1 -304 -22 0 -11 -1 -46 -2 -76 l-2 -55 408 -1 c280 0 407 3 408 10 1 6
2 267 3 581 l1 570 165 1 165 0 2 75 2 74 -56 60 c-48 51 -193 204 -373 395
-111 117 -298 315 -330 349 -194 207 -335 356 -448 475 l-93 98 -95 -99 c-314
-322 -404 -413 -411 -413 -5 0 -51 45 -103 99 -340 355 -394 411 -399 411 -3
0 -13 -9 -21 -19z m700 -931 c52 -57 102 -111 111 -121 9 -10 63 -69 120 -130
113 -121 128 -138 206 -223 54 -58 86 -133 78 -178 -12 -64 -19 -80 -45 -117
-108 -149 -376 -194 -493 -83 -43 41 -58 77 -59 145 -1 100 -40 147 -109 132
-44 -10 -61 -37 -66 -112 -7 -80 -18 -107 -69 -156 -80 -77 -225 -89 -346 -29
-138 68 -203 177 -184 305 7 45 3 40 251 302 67 72 137 146 155 165 18 19 87
92 153 163 l120 127 41 -44 c23 -24 84 -90 136 -146z"/>
</g>
</svg>
